<svg width="56" height="52" viewBox="0 0 56 52" fill="none" xmlns="http://www.w3.org/2000/svg">
<rect width="55.9024" height="51.9656" rx="7.26602" fill="#624DE2"/>
<path fill-rule="evenodd" clip-rule="evenodd" d="M44.705 17.4279C43.6568 11.5834 39.4958 8.50231 33.0795 8.08939C22.6293 7.39059 10.5591 7.61293 10.2415 21.1442C10.0191 29.5616 16.1813 33.8497 23.8998 33.8497C26.1233 33.8497 32.2854 34.1356 34.0642 33.7862C36.7641 33.2462 37.59 29.0534 32.7301 28.8946C26.4727 28.6722 18.5 29.9428 16.5625 24.1935C15.5778 21.2713 16.2131 17.682 17.9283 15.8397C20.3741 13.2351 33.1113 13.7751 36.7959 14.3151C41.6875 14.9821 42.418 16.6973 44.6733 17.4597L44.705 17.4279Z" fill="#FDFDFD"/>
<path fill-rule="evenodd" clip-rule="evenodd" d="M11.925 35.1201C12.8779 43.6646 20.6282 44.2998 27.3621 44.5539C34.3819 44.808 41.9734 44.5539 45.0862 37.1848C47.1191 32.3567 46.3568 25.1781 42.291 21.5571C40.0358 19.556 36.8277 18.8889 31.9678 18.7936C30.1573 18.7619 23.074 18.5713 21.8352 18.9842C19.6753 19.7148 19.1353 23.6852 24.6622 23.6852C31.0467 23.6852 38.5429 22.9229 40.1628 28.8627C40.9569 31.8167 40.1946 35.3107 38.3523 36.9942C35.3983 39.7259 19.04 38.7412 15.4507 37.1212C14.0849 36.5177 13.4179 35.7236 11.925 35.1201Z" fill="#FDFDFD"/>
</svg>
