<svg width="630" height="433" viewBox="0 0 630 433" fill="none" xmlns="http://www.w3.org/2000/svg">
<g clip-path="url(#clip0_2013_927)">
<g filter="url(#filter0_d_2013_927)">
<rect x="93" width="165" height="47" rx="23.5" fill="#8232FF"/>
<rect x="93.5" y="0.5" width="164" height="46" rx="23" stroke="url(#paint0_linear_2013_927)"/>
</g>
<path d="M138.291 31V17.9091H140.663V29.0121H146.428V31H138.291ZM148.384 31V21.1818H150.698V31H148.384ZM149.548 19.7884C149.181 19.7884 148.866 19.6669 148.602 19.424C148.337 19.1768 148.205 18.8807 148.205 18.5355C148.205 18.1861 148.337 17.8899 148.602 17.647C148.866 17.3999 149.181 17.2763 149.548 17.2763C149.918 17.2763 150.234 17.3999 150.494 17.647C150.758 17.8899 150.89 18.1861 150.89 18.5355C150.89 18.8807 150.758 19.1768 150.494 19.424C150.234 19.6669 149.918 19.7884 149.548 19.7884ZM159.629 34.6818V29.4531H159.534C159.414 29.6918 159.242 29.9453 159.016 30.2138C158.79 30.478 158.492 30.7038 158.121 30.8913C157.75 31.0788 157.284 31.1726 156.721 31.1726C155.95 31.1726 155.259 30.9744 154.65 30.5781C154.041 30.1818 153.559 29.6065 153.205 28.8523C152.852 28.098 152.675 27.1818 152.675 26.1037C152.675 25.0128 152.854 24.0923 153.212 23.3423C153.574 22.5881 154.062 22.0192 154.676 21.6357C155.289 21.2479 155.973 21.054 156.727 21.054C157.303 21.054 157.776 21.152 158.146 21.348C158.517 21.5398 158.811 21.772 159.029 22.0447C159.246 22.3132 159.414 22.5668 159.534 22.8054H159.674V21.1818H161.95V34.6818H159.629ZM157.367 29.2741C157.857 29.2741 158.274 29.142 158.619 28.8778C158.965 28.6094 159.227 28.2365 159.406 27.7592C159.585 27.282 159.674 26.7259 159.674 26.0909C159.674 25.456 159.585 24.9041 159.406 24.4354C159.231 23.9666 158.971 23.6023 158.626 23.3423C158.285 23.0824 157.865 22.9524 157.367 22.9524C156.851 22.9524 156.421 23.0866 156.075 23.3551C155.73 23.6236 155.47 23.9943 155.296 24.4673C155.121 24.9403 155.034 25.4815 155.034 26.0909C155.034 26.7045 155.121 27.2521 155.296 27.7337C155.475 28.2109 155.737 28.5881 156.082 28.8651C156.431 29.1378 156.86 29.2741 157.367 29.2741ZM170.585 26.8707V21.1818H172.899V31H170.656V29.255H170.553C170.332 29.8047 169.968 30.2543 169.46 30.6037C168.958 30.9531 168.338 31.1278 167.6 31.1278C166.957 31.1278 166.388 30.9851 165.894 30.6996C165.404 30.4098 165.02 29.9901 164.743 29.4403C164.466 28.8864 164.328 28.2173 164.328 27.4332V21.1818H166.642V27.0753C166.642 27.6974 166.812 28.1918 167.153 28.5582C167.494 28.9247 167.941 29.108 168.495 29.108C168.836 29.108 169.166 29.0249 169.486 28.8587C169.806 28.6925 170.068 28.4453 170.272 28.1172C170.481 27.7848 170.585 27.3693 170.585 26.8707ZM175.279 31V21.1818H177.593V31H175.279ZM176.442 19.7884C176.076 19.7884 175.76 19.6669 175.496 19.424C175.232 19.1768 175.1 18.8807 175.1 18.5355C175.1 18.1861 175.232 17.8899 175.496 17.647C175.76 17.3999 176.076 17.2763 176.442 17.2763C176.813 17.2763 177.128 17.3999 177.388 17.647C177.652 17.8899 177.784 18.1861 177.784 18.5355C177.784 18.8807 177.652 19.1768 177.388 19.424C177.128 19.6669 176.813 19.7884 176.442 19.7884ZM183.616 31.1726C182.844 31.1726 182.154 30.9744 181.545 30.5781C180.935 30.1818 180.454 29.6065 180.1 28.8523C179.746 28.098 179.569 27.1818 179.569 26.1037C179.569 25.0128 179.748 24.0923 180.106 23.3423C180.469 22.5881 180.956 22.0192 181.57 21.6357C182.184 21.2479 182.868 21.054 183.622 21.054C184.197 21.054 184.67 21.152 185.041 21.348C185.412 21.5398 185.706 21.772 185.923 22.0447C186.14 22.3132 186.309 22.5668 186.428 22.8054H186.524V17.9091H188.844V31H186.569V29.4531H186.428C186.309 29.6918 186.136 29.9453 185.91 30.2138C185.684 30.478 185.386 30.7038 185.015 30.8913C184.645 31.0788 184.178 31.1726 183.616 31.1726ZM184.261 29.2741C184.751 29.2741 185.169 29.142 185.514 28.8778C185.859 28.6094 186.121 28.2365 186.3 27.7592C186.479 27.282 186.569 26.7259 186.569 26.0909C186.569 25.456 186.479 24.9041 186.3 24.4354C186.126 23.9666 185.866 23.6023 185.52 23.3423C185.18 23.0824 184.76 22.9524 184.261 22.9524C183.746 22.9524 183.315 23.0866 182.97 23.3551C182.625 23.6236 182.365 23.9943 182.19 24.4673C182.015 24.9403 181.928 25.4815 181.928 26.0909C181.928 26.7045 182.015 27.2521 182.19 27.7337C182.369 28.2109 182.631 28.5881 182.976 28.8651C183.326 29.1378 183.754 29.2741 184.261 29.2741ZM191.31 31V21.1818H193.624V31H191.31ZM192.473 19.7884C192.107 19.7884 191.792 19.6669 191.527 19.424C191.263 19.1768 191.131 18.8807 191.131 18.5355C191.131 18.1861 191.263 17.8899 191.527 17.647C191.792 17.3999 192.107 17.2763 192.473 17.2763C192.844 17.2763 193.159 17.3999 193.419 17.647C193.684 17.8899 193.816 18.1861 193.816 18.5355C193.816 18.8807 193.684 19.1768 193.419 19.424C193.159 19.6669 192.844 19.7884 192.473 19.7884ZM200.906 21.1818V22.9716H195.262V21.1818H200.906ZM196.655 18.8295H198.969V28.0469C198.969 28.358 199.016 28.5966 199.11 28.7628C199.208 28.9247 199.336 29.0355 199.493 29.0952C199.651 29.1548 199.826 29.1847 200.018 29.1847C200.162 29.1847 200.295 29.174 200.414 29.1527C200.537 29.1314 200.631 29.1122 200.695 29.0952L201.085 30.9041C200.961 30.9467 200.785 30.9936 200.555 31.0447C200.329 31.0959 200.052 31.1257 199.724 31.1342C199.144 31.1513 198.622 31.0639 198.157 30.8722C197.693 30.6761 197.324 30.3736 197.052 29.9645C196.783 29.5554 196.651 29.044 196.655 28.4304V18.8295ZM204.279 34.6818C203.964 34.6818 203.672 34.6563 203.404 34.6051C203.14 34.5582 202.929 34.5028 202.771 34.4389L203.308 32.6364C203.645 32.7344 203.945 32.7813 204.209 32.777C204.473 32.7727 204.706 32.6896 204.906 32.5277C205.11 32.37 205.283 32.1058 205.424 31.7351L205.622 31.2045L202.061 21.1818H204.516L206.779 28.5966H206.881L209.15 21.1818H211.611L207.68 32.1889C207.497 32.7088 207.254 33.1541 206.951 33.5249C206.649 33.8999 206.278 34.1854 205.839 34.3814C205.404 34.5817 204.885 34.6818 204.279 34.6818Z" fill="white"/>
<g filter="url(#filter1_d_2013_927)">
<rect width="165" height="47" rx="23.5" transform="matrix(-1 0 0 1 535 22)" fill="#8232FF"/>
<rect x="-0.5" y="0.5" width="164" height="46" rx="23" transform="matrix(-1 0 0 1 534 22)" stroke="url(#paint1_linear_2013_927)"/>
</g>
<path d="M428.716 41.897V39.9091H439.161V41.897H435.114V53H432.762V41.897H428.716ZM443.994 53.1918C443.01 53.1918 442.16 52.9872 441.444 52.5781C440.732 52.1648 440.185 51.581 439.801 50.8267C439.418 50.0682 439.226 49.1754 439.226 48.1484C439.226 47.1385 439.418 46.2521 439.801 45.4893C440.189 44.7223 440.73 44.1257 441.425 43.6996C442.119 43.2692 442.936 43.054 443.873 43.054C444.478 43.054 445.049 43.152 445.586 43.348C446.127 43.5398 446.605 43.8381 447.018 44.2429C447.436 44.6477 447.764 45.1634 448.002 45.7898C448.241 46.4119 448.36 47.1534 448.36 48.0142V48.7237H440.313V47.1641H446.142C446.138 46.7209 446.042 46.3267 445.855 45.9815C445.667 45.6321 445.405 45.3572 445.068 45.157C444.736 44.9567 444.348 44.8565 443.905 44.8565C443.432 44.8565 443.017 44.9716 442.659 45.2017C442.301 45.4276 442.021 45.7259 441.821 46.0966C441.625 46.4631 441.525 46.8658 441.521 47.3047V48.6662C441.521 49.2372 441.625 49.7273 441.834 50.1364C442.043 50.5412 442.335 50.8523 442.71 51.0696C443.085 51.2827 443.524 51.3892 444.026 51.3892C444.363 51.3892 444.668 51.3423 444.941 51.2486C445.213 51.1506 445.45 51.0078 445.65 50.8203C445.85 50.6328 446.002 50.4006 446.104 50.1236L448.264 50.3665C448.128 50.9375 447.868 51.4361 447.485 51.8622C447.105 52.2841 446.619 52.6122 446.027 52.8466C445.435 53.0767 444.757 53.1918 443.994 53.1918ZM453.143 53.1982C452.521 53.1982 451.961 53.0874 451.462 52.8658C450.968 52.6399 450.576 52.3075 450.286 51.8686C450 51.4297 449.858 50.8885 449.858 50.245C449.858 49.6911 449.96 49.233 450.164 48.8707C450.369 48.5085 450.648 48.2188 451.002 48.0014C451.355 47.7841 451.754 47.62 452.197 47.5092C452.645 47.3942 453.107 47.3111 453.584 47.2599C454.159 47.2003 454.626 47.147 454.984 47.1001C455.342 47.049 455.602 46.9723 455.764 46.87C455.93 46.7635 456.013 46.5994 456.013 46.3778V46.3395C456.013 45.858 455.87 45.4851 455.585 45.2209C455.299 44.9567 454.888 44.8246 454.351 44.8246C453.784 44.8246 453.335 44.9482 453.002 45.1953C452.674 45.4425 452.453 45.7344 452.338 46.071L450.177 45.7642C450.348 45.1676 450.629 44.669 451.021 44.2685C451.413 43.8636 451.892 43.5611 452.459 43.3608C453.026 43.1562 453.652 43.054 454.338 43.054C454.811 43.054 455.282 43.1094 455.751 43.2202C456.22 43.331 456.648 43.5142 457.036 43.7699C457.424 44.0213 457.735 44.3643 457.969 44.799C458.208 45.2337 458.327 45.777 458.327 46.429V53H456.103V51.6513H456.026C455.885 51.924 455.687 52.1797 455.431 52.4183C455.18 52.6527 454.863 52.8423 454.479 52.9872C454.1 53.1278 453.654 53.1982 453.143 53.1982ZM453.744 51.4979C454.208 51.4979 454.611 51.4062 454.952 51.223C455.293 51.0355 455.555 50.7884 455.738 50.4815C455.926 50.1747 456.02 49.8402 456.02 49.478V48.321C455.947 48.3807 455.824 48.4361 455.649 48.4872C455.478 48.5384 455.287 48.5831 455.074 48.6214C454.86 48.6598 454.65 48.6939 454.441 48.7237C454.232 48.7536 454.051 48.7791 453.897 48.8004C453.552 48.8473 453.243 48.924 452.971 49.0305C452.698 49.1371 452.483 49.2862 452.325 49.478C452.167 49.6655 452.088 49.9084 452.088 50.2067C452.088 50.6328 452.244 50.9545 452.555 51.1719C452.866 51.3892 453.262 51.4979 453.744 51.4979ZM460.654 53V43.1818H462.865V44.8501H462.98C463.185 44.2876 463.524 43.8487 463.997 43.5334C464.47 43.2138 465.034 43.054 465.691 43.054C466.355 43.054 466.916 43.2159 467.372 43.5398C467.832 43.8594 468.156 44.2962 468.343 44.8501H468.446C468.663 44.3047 469.029 43.87 469.545 43.5462C470.065 43.218 470.681 43.054 471.392 43.054C472.296 43.054 473.033 43.3395 473.604 43.9105C474.175 44.4815 474.461 45.3146 474.461 46.4098V53H472.14V46.7678C472.14 46.1584 471.978 45.7131 471.654 45.4318C471.331 45.1463 470.934 45.0036 470.466 45.0036C469.907 45.0036 469.471 45.1783 469.155 45.5277C468.844 45.8729 468.689 46.3224 468.689 46.8764V53H466.419V46.6719C466.419 46.1648 466.266 45.7599 465.959 45.4574C465.657 45.1548 465.26 45.0036 464.77 45.0036C464.438 45.0036 464.135 45.0888 463.863 45.2592C463.59 45.4254 463.373 45.6619 463.211 45.9688C463.049 46.2713 462.968 46.625 462.968 47.0298V53H460.654Z" fill="white"/>
<path d="M228 46.5L263.5 111" stroke="url(#paint2_linear_2013_927)" stroke-miterlimit="10"/>
<g opacity="0.47" filter="url(#filter2_f_2013_927)">
<circle cx="309" cy="191" r="137" fill="url(#paint3_radial_2013_927)"/>
<circle cx="309" cy="191" r="136.5" stroke="url(#paint4_linear_2013_927)"/>
</g>
<path d="M423.906 68.5L388.406 133" stroke="url(#paint5_linear_2013_927)" stroke-miterlimit="10"/>
<path d="M228.243 112.243C245.916 94.5706 268.928 83.2253 293.708 79.968L298.146 113.728C280.8 116.008 264.691 123.949 252.32 136.32L228.243 112.243Z" fill="#E0A4CE"/>
<g style="mix-blend-mode:luminosity">
<path d="M198.867 221.876C193.711 202.631 193.711 182.369 198.867 163.124C204.024 143.88 214.155 126.331 228.243 112.243L252.32 136.32C242.459 146.182 235.367 158.466 231.757 171.937C228.148 185.408 228.148 199.592 231.757 213.063L198.867 221.876Z" fill="url(#paint6_linear_2013_927)"/>
</g>
<g style="mix-blend-mode:luminosity">
<path d="M337.876 302.133C323.479 305.99 308.463 306.974 293.685 305.029C278.908 303.083 264.658 298.246 251.75 290.794L268.775 261.306C277.811 266.522 287.785 269.908 298.13 271.27C308.474 272.632 318.985 271.943 329.063 269.243L337.876 302.133Z" fill="url(#paint7_linear_2013_927)"/>
</g>
<g style="mix-blend-mode:color-dodge">
<path d="M251.75 290.794C225.681 275.743 206.658 250.952 198.867 221.876L231.757 213.063C237.211 233.417 250.527 250.77 268.775 261.306L251.75 290.794Z" fill="url(#paint8_linear_2013_927)"/>
</g>
<g style="mix-blend-mode:luminosity">
<path d="M388.757 272.757C374.669 286.845 357.12 296.976 337.876 302.133L329.063 269.243C342.534 265.633 354.818 258.541 364.68 248.68L388.757 272.757Z" fill="url(#paint9_linear_2013_927)"/>
</g>
<g style="mix-blend-mode:luminosity">
<path d="M418.133 221.876C412.976 241.12 402.845 258.669 388.757 272.757L364.68 248.68C374.541 238.818 381.633 226.534 385.243 213.063L418.133 221.876Z" fill="url(#paint10_linear_2013_927)"/>
</g>
<g style="mix-blend-mode:lighten">
<path d="M279.124 82.8674C298.369 77.7109 318.631 77.7109 337.876 82.8674C357.121 88.024 374.669 98.1554 388.757 112.243C402.845 126.331 412.976 143.88 418.133 163.124C423.289 182.369 423.289 202.631 418.133 221.876L385.243 213.063C388.852 199.592 388.852 185.408 385.243 171.937C381.633 158.466 374.541 146.182 364.68 136.32C354.818 126.459 342.534 119.367 329.063 115.757C315.592 112.148 301.408 112.148 287.937 115.757L279.124 82.8674Z" fill="url(#paint11_linear_2013_927)"/>
</g>
<path opacity="0.32" d="M257.277 106.457C255.32 109.847 256.449 114.052 259.844 116.012C263.238 117.972 267.444 116.847 269.402 113.457C271.359 110.066 270.23 105.861 266.835 103.901C263.58 101.699 259.235 103.066 257.277 106.457Z" stroke="url(#paint12_linear_2013_927)" stroke-width="0.5" stroke-miterlimit="10"/>
<path d="M261.383 108.801C260.683 110.012 261.087 111.514 262.299 112.214C263.511 112.914 265.013 112.512 265.713 111.301C266.412 110.09 266.009 108.589 264.796 107.889C263.634 107.102 262.082 107.59 261.383 108.801Z" fill="white"/>
<path opacity="0.32" d="M394.628 128.457C396.586 131.847 395.457 136.052 392.062 138.012C388.667 139.972 384.462 138.847 382.504 135.457C380.546 132.066 381.676 127.861 385.07 125.901C388.325 123.699 392.671 125.066 394.628 128.457Z" stroke="url(#paint13_linear_2013_927)" stroke-width="0.5" stroke-miterlimit="10"/>
<path d="M390.523 130.801C391.222 132.012 390.819 133.514 389.606 134.214C388.394 134.914 386.892 134.512 386.193 133.301C385.494 132.09 385.897 130.589 387.109 129.889C388.272 129.102 389.824 129.59 390.523 130.801Z" fill="white"/>
<g filter="url(#filter3_d_2013_927)">
<rect y="145" width="165" height="47" rx="23.5" fill="#8232FF"/>
<rect x="0.5" y="145.5" width="164" height="46" rx="23" stroke="url(#paint14_linear_2013_927)"/>
</g>
<path d="M27.2912 162.909H30.1932L34.0795 172.395H34.233L38.1193 162.909H41.0213V176H38.7457V167.006H38.6243L35.0064 175.962H33.3061L29.6882 166.987H29.5668V176H27.2912V162.909ZM46.3267 176.198C45.7045 176.198 45.1442 176.087 44.6456 175.866C44.1513 175.64 43.7592 175.308 43.4695 174.869C43.1839 174.43 43.0412 173.888 43.0412 173.245C43.0412 172.691 43.1435 172.233 43.348 171.871C43.5526 171.509 43.8317 171.219 44.1854 171.001C44.5391 170.784 44.9375 170.62 45.3807 170.509C45.8281 170.394 46.2905 170.311 46.7678 170.26C47.343 170.2 47.8097 170.147 48.1676 170.1C48.5256 170.049 48.7855 169.972 48.9474 169.87C49.1136 169.763 49.1967 169.599 49.1967 169.378V169.339C49.1967 168.858 49.054 168.485 48.7685 168.221C48.483 167.957 48.0717 167.825 47.5348 167.825C46.968 167.825 46.5185 167.948 46.1861 168.195C45.858 168.442 45.6364 168.734 45.5213 169.071L43.3608 168.764C43.5313 168.168 43.8125 167.669 44.2045 167.268C44.5966 166.864 45.076 166.561 45.6428 166.361C46.2095 166.156 46.8359 166.054 47.522 166.054C47.995 166.054 48.4659 166.109 48.9347 166.22C49.4034 166.331 49.8317 166.514 50.2195 166.77C50.6072 167.021 50.9183 167.364 51.1527 167.799C51.3913 168.234 51.5107 168.777 51.5107 169.429V176H49.2862V174.651H49.2095C49.0689 174.924 48.8707 175.18 48.6151 175.418C48.3636 175.653 48.0462 175.842 47.6626 175.987C47.2834 176.128 46.8381 176.198 46.3267 176.198ZM46.9276 174.498C47.392 174.498 47.7947 174.406 48.1357 174.223C48.4766 174.036 48.7386 173.788 48.9219 173.482C49.1094 173.175 49.2031 172.84 49.2031 172.478V171.321C49.1307 171.381 49.0071 171.436 48.8324 171.487C48.6619 171.538 48.4702 171.583 48.2571 171.621C48.044 171.66 47.8331 171.694 47.6243 171.724C47.4155 171.754 47.2344 171.779 47.081 171.8C46.7358 171.847 46.4268 171.924 46.1541 172.031C45.8814 172.137 45.6662 172.286 45.5085 172.478C45.3509 172.665 45.272 172.908 45.272 173.207C45.272 173.633 45.4276 173.955 45.7386 174.172C46.0497 174.389 46.446 174.498 46.9276 174.498ZM53.8374 176V166.182H56.081V167.818H56.1832C56.3622 167.251 56.669 166.815 57.1037 166.508C57.5426 166.197 58.0433 166.041 58.6058 166.041C58.7337 166.041 58.8764 166.048 59.0341 166.06C59.196 166.069 59.3303 166.084 59.4368 166.105V168.234C59.3388 168.2 59.1832 168.17 58.9702 168.144C58.7614 168.114 58.5589 168.099 58.3629 168.099C57.9411 168.099 57.5618 168.191 57.2251 168.374C56.8928 168.553 56.6307 168.803 56.4389 169.122C56.2472 169.442 56.1513 169.81 56.1513 170.228V176H53.8374ZM63.0835 172.919L63.0771 170.126H63.4478L66.9762 166.182H69.68L65.3398 171.014H64.8604L63.0835 172.919ZM60.9741 176V162.909H63.288V176H60.9741ZM67.136 176L63.94 171.532L65.4996 169.902L69.9038 176H67.136ZM75.1644 176.192C74.18 176.192 73.3299 175.987 72.614 175.578C71.9023 175.165 71.3548 174.581 70.9712 173.827C70.5877 173.068 70.396 172.175 70.396 171.148C70.396 170.138 70.5877 169.252 70.9712 168.489C71.359 167.722 71.9002 167.126 72.5948 166.7C73.2894 166.269 74.1055 166.054 75.043 166.054C75.6481 166.054 76.2191 166.152 76.756 166.348C77.2972 166.54 77.7745 166.838 78.1879 167.243C78.6055 167.648 78.9336 168.163 79.1722 168.79C79.4109 169.412 79.5302 170.153 79.5302 171.014V171.724H71.4826V170.164H77.3121C77.3079 169.721 77.212 169.327 77.0245 168.982C76.837 168.632 76.5749 168.357 76.2383 168.157C75.9059 167.957 75.5181 167.857 75.0749 167.857C74.6019 167.857 74.1864 167.972 73.8285 168.202C73.4705 168.428 73.1914 168.726 72.9911 169.097C72.7951 169.463 72.695 169.866 72.6907 170.305V171.666C72.6907 172.237 72.7951 172.727 73.0039 173.136C73.2127 173.541 73.5046 173.852 73.8796 174.07C74.2546 174.283 74.6935 174.389 75.1964 174.389C75.533 174.389 75.8377 174.342 76.1104 174.249C76.3832 174.151 76.6197 174.008 76.82 173.82C77.0202 173.633 77.1715 173.401 77.2738 173.124L79.4343 173.366C79.2979 173.937 79.038 174.436 78.6545 174.862C78.2752 175.284 77.7894 175.612 77.1971 175.847C76.6048 176.077 75.9272 176.192 75.1644 176.192ZM86.3904 166.182V167.972H80.7463V166.182H86.3904ZM82.1397 163.83H84.4537V173.047C84.4537 173.358 84.5005 173.597 84.5943 173.763C84.6923 173.925 84.8201 174.036 84.9778 174.095C85.1355 174.155 85.3102 174.185 85.502 174.185C85.6468 174.185 85.7789 174.174 85.8983 174.153C86.0218 174.131 86.1156 174.112 86.1795 174.095L86.5694 175.904C86.4458 175.947 86.269 175.994 86.0389 176.045C85.813 176.096 85.536 176.126 85.2079 176.134C84.6284 176.151 84.1064 176.064 83.6419 175.872C83.1774 175.676 82.8088 175.374 82.536 174.964C82.2676 174.555 82.1355 174.044 82.1397 173.43V163.83Z" fill="white"/>
<path opacity="0.32" d="M209.277 166.457C207.32 169.847 208.449 174.052 211.844 176.012C215.238 177.972 219.444 176.847 221.402 173.457C223.359 170.066 222.23 165.861 218.835 163.901C215.58 161.699 211.235 163.066 209.277 166.457Z" stroke="url(#paint15_linear_2013_927)" stroke-width="0.5" stroke-miterlimit="10"/>
<path d="M213.383 168.801C212.683 170.012 213.087 171.514 214.299 172.214C215.511 172.914 217.013 172.512 217.713 171.301C218.412 170.09 218.009 168.589 216.796 167.889C215.634 167.102 214.082 167.59 213.383 168.801Z" fill="white"/>
<path d="M164 171H215.5" stroke="url(#paint16_linear_2013_927)" stroke-miterlimit="10"/>
<g filter="url(#filter4_d_2013_927)">
<rect width="165" height="47" rx="23.5" transform="matrix(-1 0 0 1 630 218)" fill="#8232FF"/>
<rect x="-0.5" y="0.5" width="164" height="46" rx="23" transform="matrix(-1 0 0 1 629 218)" stroke="url(#paint17_linear_2013_927)"/>
</g>
<path d="M518.291 248V234.909H523.2C524.206 234.909 525.05 235.097 525.732 235.472C526.418 235.847 526.935 236.362 527.285 237.018C527.638 237.67 527.815 238.412 527.815 239.243C527.815 240.082 527.638 240.828 527.285 241.48C526.931 242.132 526.409 242.646 525.719 243.021C525.028 243.391 524.178 243.577 523.168 243.577H519.915V241.627H522.849C523.437 241.627 523.918 241.525 524.293 241.32C524.668 241.116 524.945 240.835 525.124 240.477C525.308 240.119 525.399 239.707 525.399 239.243C525.399 238.778 525.308 238.369 525.124 238.016C524.945 237.662 524.666 237.387 524.287 237.191C523.912 236.991 523.428 236.891 522.836 236.891H520.663V248H518.291ZM529.773 248V238.182H532.017V239.818H532.119C532.298 239.251 532.605 238.815 533.039 238.508C533.478 238.197 533.979 238.041 534.541 238.041C534.669 238.041 534.812 238.048 534.97 238.06C535.132 238.069 535.266 238.084 535.372 238.105V240.234C535.274 240.2 535.119 240.17 534.906 240.144C534.697 240.114 534.494 240.099 534.298 240.099C533.877 240.099 533.497 240.191 533.161 240.374C532.828 240.553 532.566 240.803 532.374 241.122C532.183 241.442 532.087 241.81 532.087 242.228V248H529.773ZM540.852 248.192C539.868 248.192 539.017 247.987 538.301 247.578C537.59 247.165 537.042 246.581 536.659 245.827C536.275 245.068 536.083 244.175 536.083 243.148C536.083 242.138 536.275 241.252 536.659 240.489C537.047 239.722 537.588 239.126 538.282 238.7C538.977 238.269 539.793 238.054 540.73 238.054C541.336 238.054 541.907 238.152 542.444 238.348C542.985 238.54 543.462 238.838 543.875 239.243C544.293 239.648 544.621 240.163 544.86 240.79C545.098 241.412 545.218 242.153 545.218 243.014V243.724H537.17V242.164H543C542.995 241.721 542.9 241.327 542.712 240.982C542.525 240.632 542.262 240.357 541.926 240.157C541.593 239.957 541.206 239.857 540.762 239.857C540.289 239.857 539.874 239.972 539.516 240.202C539.158 240.428 538.879 240.726 538.679 241.097C538.483 241.463 538.382 241.866 538.378 242.305V243.666C538.378 244.237 538.483 244.727 538.691 245.136C538.9 245.541 539.192 245.852 539.567 246.07C539.942 246.283 540.381 246.389 540.884 246.389C541.221 246.389 541.525 246.342 541.798 246.249C542.071 246.151 542.307 246.008 542.507 245.82C542.708 245.633 542.859 245.401 542.961 245.124L545.122 245.366C544.985 245.937 544.725 246.436 544.342 246.862C543.963 247.284 543.477 247.612 542.885 247.847C542.292 248.077 541.615 248.192 540.852 248.192ZM554.935 240.777L552.826 241.007C552.766 240.794 552.662 240.594 552.513 240.406C552.368 240.219 552.172 240.067 551.925 239.952C551.677 239.837 551.375 239.78 551.017 239.78C550.535 239.78 550.131 239.884 549.802 240.093C549.479 240.302 549.319 240.572 549.323 240.905C549.319 241.19 549.423 241.423 549.636 241.602C549.854 241.781 550.211 241.928 550.71 242.043L552.385 242.401C553.314 242.601 554.004 242.918 554.456 243.353C554.912 243.788 555.142 244.357 555.146 245.06C555.142 245.678 554.961 246.223 554.603 246.696C554.249 247.165 553.757 247.531 553.126 247.795C552.496 248.06 551.771 248.192 550.953 248.192C549.751 248.192 548.784 247.94 548.051 247.438C547.318 246.93 546.881 246.225 546.741 245.322L548.997 245.104C549.099 245.548 549.317 245.882 549.649 246.108C549.981 246.334 550.414 246.447 550.947 246.447C551.496 246.447 551.937 246.334 552.27 246.108C552.606 245.882 552.775 245.603 552.775 245.271C552.775 244.989 552.666 244.757 552.449 244.574C552.236 244.391 551.903 244.25 551.452 244.152L549.777 243.8C548.835 243.604 548.138 243.274 547.687 242.81C547.235 242.341 547.011 241.749 547.015 241.033C547.011 240.428 547.175 239.903 547.508 239.46C547.844 239.013 548.311 238.668 548.907 238.425C549.508 238.178 550.201 238.054 550.985 238.054C552.135 238.054 553.041 238.299 553.702 238.789C554.366 239.279 554.778 239.942 554.935 240.777ZM559.879 248.198C559.257 248.198 558.697 248.087 558.198 247.866C557.704 247.64 557.312 247.308 557.022 246.869C556.737 246.43 556.594 245.888 556.594 245.245C556.594 244.691 556.696 244.233 556.901 243.871C557.105 243.509 557.384 243.219 557.738 243.001C558.092 242.784 558.49 242.62 558.933 242.509C559.381 242.394 559.843 242.311 560.32 242.26C560.896 242.2 561.362 242.147 561.72 242.1C562.078 242.049 562.338 241.972 562.5 241.87C562.666 241.763 562.749 241.599 562.749 241.378V241.339C562.749 240.858 562.607 240.485 562.321 240.221C562.036 239.957 561.624 239.825 561.088 239.825C560.521 239.825 560.071 239.948 559.739 240.195C559.411 240.442 559.189 240.734 559.074 241.071L556.914 240.764C557.084 240.168 557.365 239.669 557.757 239.268C558.149 238.864 558.629 238.561 559.195 238.361C559.762 238.156 560.389 238.054 561.075 238.054C561.548 238.054 562.019 238.109 562.487 238.22C562.956 238.331 563.384 238.514 563.772 238.77C564.16 239.021 564.471 239.364 564.705 239.799C564.944 240.234 565.063 240.777 565.063 241.429V248H562.839V246.651H562.762C562.622 246.924 562.423 247.18 562.168 247.418C561.916 247.653 561.599 247.842 561.215 247.987C560.836 248.128 560.391 248.198 559.879 248.198ZM560.48 246.498C560.945 246.498 561.347 246.406 561.688 246.223C562.029 246.036 562.291 245.788 562.475 245.482C562.662 245.175 562.756 244.84 562.756 244.478V243.321C562.683 243.381 562.56 243.436 562.385 243.487C562.215 243.538 562.023 243.583 561.81 243.621C561.597 243.66 561.386 243.694 561.177 243.724C560.968 243.754 560.787 243.779 560.634 243.8C560.289 243.847 559.98 243.924 559.707 244.031C559.434 244.137 559.219 244.286 559.061 244.478C558.904 244.665 558.825 244.908 558.825 245.207C558.825 245.633 558.98 245.955 559.291 246.172C559.602 246.389 559.999 246.498 560.48 246.498ZM569.704 234.909V248H567.39V234.909H569.704ZM576.43 248.192C575.446 248.192 574.596 247.987 573.88 247.578C573.168 247.165 572.62 246.581 572.237 245.827C571.853 245.068 571.662 244.175 571.662 243.148C571.662 242.138 571.853 241.252 572.237 240.489C572.625 239.722 573.166 239.126 573.86 238.7C574.555 238.269 575.371 238.054 576.309 238.054C576.914 238.054 577.485 238.152 578.022 238.348C578.563 238.54 579.04 238.838 579.453 239.243C579.871 239.648 580.199 240.163 580.438 240.79C580.676 241.412 580.796 242.153 580.796 243.014V243.724H572.748V242.164H578.578C578.574 241.721 578.478 241.327 578.29 240.982C578.103 240.632 577.841 240.357 577.504 240.157C577.172 239.957 576.784 239.857 576.341 239.857C575.868 239.857 575.452 239.972 575.094 240.202C574.736 240.428 574.457 240.726 574.257 241.097C574.061 241.463 573.961 241.866 573.956 242.305V243.666C573.956 244.237 574.061 244.727 574.27 245.136C574.478 245.541 574.77 245.852 575.145 246.07C575.52 246.283 575.959 246.389 576.462 246.389C576.799 246.389 577.103 246.342 577.376 246.249C577.649 246.151 577.885 246.008 578.086 245.82C578.286 245.633 578.437 245.401 578.539 245.124L580.7 245.366C580.564 245.937 580.304 246.436 579.92 246.862C579.541 247.284 579.055 247.612 578.463 247.847C577.87 248.077 577.193 248.192 576.43 248.192Z" fill="white"/>
<path opacity="0.32" d="M400.628 239.457C402.586 242.847 401.457 247.052 398.062 249.012C394.667 250.972 390.462 249.847 388.504 246.457C386.546 243.066 387.676 238.861 391.07 236.901C394.325 234.699 398.671 236.066 400.628 239.457Z" stroke="url(#paint18_linear_2013_927)" stroke-width="0.5" stroke-miterlimit="10"/>
<path d="M177 299.922L231.715 250.66" stroke="url(#paint19_linear_2013_927)" stroke-miterlimit="10"/>
<path d="M396.523 241.801C397.222 243.012 396.819 244.514 395.606 245.214C394.394 245.914 392.892 245.512 392.193 244.301C391.494 243.09 391.897 241.589 393.109 240.889C394.272 240.102 395.824 240.59 396.523 241.801Z" fill="white"/>
<path opacity="0.32" d="M224.362 251.337C223.626 247.492 226.074 243.891 229.924 243.155C233.774 242.419 237.377 244.862 238.113 248.708C238.848 252.553 236.401 256.154 232.55 256.89C228.753 257.901 225.097 255.183 224.362 251.337Z" stroke="url(#paint20_linear_2013_927)" stroke-width="0.5" stroke-miterlimit="10"/>
<path d="M467.5 244H394.406" stroke="url(#paint21_linear_2013_927)" stroke-miterlimit="10"/>
<path d="M229.009 250.471C228.747 249.097 229.621 247.812 230.996 247.549C232.371 247.286 233.658 248.158 233.92 249.532C234.183 250.905 233.309 252.191 231.934 252.454C230.578 252.815 229.272 251.844 229.009 250.471Z" fill="white"/>
<path opacity="0.32" d="M363.628 280.055C365.586 276.664 364.457 272.46 361.062 270.5C357.667 268.54 353.462 269.664 351.504 273.055C349.546 276.446 350.676 280.65 354.07 282.61C357.325 284.812 361.671 283.446 363.628 280.055Z" stroke="url(#paint22_linear_2013_927)" stroke-width="0.5" stroke-miterlimit="10"/>
<path d="M409 341.5L358 277.061" stroke="url(#paint23_linear_2013_927)" stroke-miterlimit="10"/>
<path d="M359.523 277.71C360.222 276.499 359.819 274.998 358.606 274.298C357.394 273.598 355.892 273.999 355.193 275.21C354.494 276.421 354.897 277.923 356.109 278.623C357.272 279.409 358.824 278.921 359.523 277.71Z" fill="white"/>
<path opacity="0.32" d="M292.496 295.055C290.538 291.664 291.668 287.46 295.062 285.5C298.457 283.54 302.663 284.664 304.62 288.055C306.578 291.446 305.449 295.65 302.054 297.61C298.799 299.812 294.454 298.446 292.496 295.055Z" stroke="url(#paint24_linear_2013_927)" stroke-width="0.5" stroke-miterlimit="10"/>
<g filter="url(#filter5_d_2013_927)">
<rect x="25" y="284" width="165" height="47" rx="23.5" fill="#8232FF"/>
<rect x="25.5" y="284.5" width="164" height="46" rx="23" stroke="url(#paint25_linear_2013_927)"/>
</g>
<path d="M296.601 292.71C295.902 291.499 296.305 289.998 297.518 289.298C298.73 288.598 300.232 288.999 300.931 290.21C301.631 291.421 301.227 292.923 300.015 293.623C298.852 294.409 297.3 293.921 296.601 292.71Z" fill="white"/>
<path d="M282.822 400.746L298.5 293.5" stroke="url(#paint26_linear_2013_927)" stroke-miterlimit="10"/>
<path d="M68.4964 306.326H66.1058C66.0376 305.934 65.9119 305.587 65.7287 305.284C65.5455 304.977 65.3175 304.717 65.0447 304.504C64.772 304.291 64.4609 304.131 64.1115 304.025C63.7663 303.914 63.3935 303.859 62.9929 303.859C62.2813 303.859 61.6506 304.038 61.1009 304.396C60.5511 304.749 60.1207 305.269 59.8097 305.955C59.4986 306.637 59.343 307.47 59.343 308.455C59.343 309.456 59.4986 310.3 59.8097 310.986C60.125 311.668 60.5554 312.183 61.1009 312.533C61.6506 312.878 62.2791 313.05 62.9865 313.05C63.3786 313.05 63.745 312.999 64.0859 312.897C64.4311 312.79 64.7401 312.635 65.0128 312.43C65.2898 312.226 65.522 311.974 65.7095 311.676C65.9013 311.378 66.0334 311.037 66.1058 310.653L68.4964 310.666C68.407 311.288 68.2131 311.872 67.9148 312.418C67.6207 312.963 67.2351 313.445 66.7578 313.862C66.2805 314.276 65.7223 314.599 65.0831 314.834C64.4439 315.064 63.7344 315.179 62.9545 315.179C61.804 315.179 60.777 314.913 59.8736 314.38C58.9702 313.847 58.2585 313.078 57.7386 312.072C57.2188 311.067 56.9588 309.861 56.9588 308.455C56.9588 307.044 57.2209 305.838 57.745 304.837C58.2692 303.831 58.983 303.062 59.8864 302.529C60.7898 301.996 61.8125 301.73 62.9545 301.73C63.6832 301.73 64.3608 301.832 64.9872 302.037C65.6136 302.241 66.1719 302.542 66.6619 302.938C67.152 303.33 67.5547 303.812 67.87 304.383C68.1896 304.95 68.3984 305.597 68.4964 306.326ZM74.8485 315.192C73.8897 315.192 73.0588 314.981 72.3556 314.559C71.6525 314.137 71.1071 313.547 70.7193 312.788C70.3358 312.03 70.144 311.143 70.144 310.129C70.144 309.115 70.3358 308.227 70.7193 307.464C71.1071 306.701 71.6525 306.109 72.3556 305.687C73.0588 305.265 73.8897 305.054 74.8485 305.054C75.8074 305.054 76.6383 305.265 77.3414 305.687C78.0446 306.109 78.5879 306.701 78.9714 307.464C79.3592 308.227 79.5531 309.115 79.5531 310.129C79.5531 311.143 79.3592 312.03 78.9714 312.788C78.5879 313.547 78.0446 314.137 77.3414 314.559C76.6383 314.981 75.8074 315.192 74.8485 315.192ZM74.8613 313.338C75.3812 313.338 75.8159 313.195 76.1653 312.91C76.5147 312.62 76.7747 312.232 76.9451 311.746C77.1199 311.261 77.2072 310.719 77.2072 310.123C77.2072 309.522 77.1199 308.979 76.9451 308.493C76.7747 308.003 76.5147 307.613 76.1653 307.323C75.8159 307.033 75.3812 306.888 74.8613 306.888C74.3287 306.888 73.8855 307.033 73.5318 307.323C73.1824 307.613 72.9203 308.003 72.7456 308.493C72.5751 308.979 72.4899 309.522 72.4899 310.123C72.4899 310.719 72.5751 311.261 72.7456 311.746C72.9203 312.232 73.1824 312.62 73.5318 312.91C73.8855 313.195 74.3287 313.338 74.8613 313.338ZM81.517 315V305.182H83.7287V306.85H83.8438C84.0483 306.288 84.3871 305.849 84.8601 305.533C85.3331 305.214 85.8977 305.054 86.554 305.054C87.2188 305.054 87.7791 305.216 88.2351 305.54C88.6953 305.859 89.0192 306.296 89.2067 306.85H89.3089C89.5263 306.305 89.8928 305.87 90.4084 305.546C90.9283 305.218 91.544 305.054 92.2557 305.054C93.1591 305.054 93.8963 305.339 94.4673 305.911C95.0384 306.482 95.3239 307.315 95.3239 308.41V315H93.0036V308.768C93.0036 308.158 92.8416 307.713 92.5178 307.432C92.1939 307.146 91.7976 307.004 91.3288 307.004C90.7706 307.004 90.3338 307.178 90.0185 307.528C89.7074 307.873 89.5518 308.322 89.5518 308.876V315H87.2827V308.672C87.2827 308.165 87.1293 307.76 86.8224 307.457C86.5199 307.155 86.1236 307.004 85.6335 307.004C85.3011 307.004 84.9986 307.089 84.7259 307.259C84.4531 307.425 84.2358 307.662 84.0739 307.969C83.9119 308.271 83.831 308.625 83.831 309.03V315H81.517ZM97.6713 315V305.182H99.883V306.85H99.998C100.203 306.288 100.541 305.849 101.014 305.533C101.487 305.214 102.052 305.054 102.708 305.054C103.373 305.054 103.933 305.216 104.389 305.54C104.85 305.859 105.173 306.296 105.361 306.85H105.463C105.681 306.305 106.047 305.87 106.563 305.546C107.083 305.218 107.698 305.054 108.41 305.054C109.313 305.054 110.051 305.339 110.622 305.911C111.193 306.482 111.478 307.315 111.478 308.41V315H109.158V308.768C109.158 308.158 108.996 307.713 108.672 307.432C108.348 307.146 107.952 307.004 107.483 307.004C106.925 307.004 106.488 307.178 106.173 307.528C105.862 307.873 105.706 308.322 105.706 308.876V315H103.437V308.672C103.437 308.165 103.284 307.76 102.977 307.457C102.674 307.155 102.278 307.004 101.788 307.004C101.455 307.004 101.153 307.089 100.88 307.259C100.607 307.425 100.39 307.662 100.228 307.969C100.066 308.271 99.9853 308.625 99.9853 309.03V315H97.6713ZM120.083 310.871V305.182H122.397V315H120.154V313.255H120.051C119.83 313.805 119.466 314.254 118.958 314.604C118.456 314.953 117.836 315.128 117.098 315.128C116.455 315.128 115.886 314.985 115.392 314.7C114.902 314.41 114.518 313.99 114.241 313.44C113.964 312.886 113.826 312.217 113.826 311.433V305.182H116.14V311.075C116.14 311.697 116.31 312.192 116.651 312.558C116.992 312.925 117.439 313.108 117.993 313.108C118.334 313.108 118.664 313.025 118.984 312.859C119.304 312.692 119.566 312.445 119.77 312.117C119.979 311.785 120.083 311.369 120.083 310.871ZM127.091 309.247V315H124.777V305.182H126.988V306.85H127.104C127.329 306.3 127.689 305.864 128.184 305.54C128.682 305.216 129.298 305.054 130.031 305.054C130.709 305.054 131.299 305.199 131.802 305.489C132.309 305.778 132.701 306.198 132.978 306.748C133.259 307.298 133.398 307.964 133.393 308.749V315H131.079V309.107C131.079 308.45 130.909 307.937 130.568 307.566C130.231 307.195 129.765 307.01 129.168 307.01C128.763 307.01 128.403 307.099 128.088 307.278C127.777 307.453 127.532 307.707 127.353 308.039C127.178 308.371 127.091 308.774 127.091 309.247ZM135.746 315V305.182H138.059V315H135.746ZM136.909 303.788C136.542 303.788 136.227 303.667 135.963 303.424C135.699 303.177 135.567 302.881 135.567 302.536C135.567 302.186 135.699 301.89 135.963 301.647C136.227 301.4 136.542 301.276 136.909 301.276C137.28 301.276 137.595 301.4 137.855 301.647C138.119 301.89 138.251 302.186 138.251 302.536C138.251 302.881 138.119 303.177 137.855 303.424C137.595 303.667 137.28 303.788 136.909 303.788ZM145.342 305.182V306.972H139.697V305.182H145.342ZM141.091 302.83H143.405V312.047C143.405 312.358 143.452 312.597 143.545 312.763C143.643 312.925 143.771 313.036 143.929 313.095C144.087 313.155 144.261 313.185 144.453 313.185C144.598 313.185 144.73 313.174 144.849 313.153C144.973 313.131 145.067 313.112 145.131 313.095L145.521 314.904C145.397 314.947 145.22 314.994 144.99 315.045C144.764 315.096 144.487 315.126 144.159 315.134C143.58 315.151 143.058 315.064 142.593 314.872C142.129 314.676 141.76 314.374 141.487 313.964C141.219 313.555 141.087 313.044 141.091 312.43V302.83ZM148.715 318.682C148.4 318.682 148.108 318.656 147.839 318.605C147.575 318.558 147.364 318.503 147.206 318.439L147.743 316.636C148.08 316.734 148.381 316.781 148.645 316.777C148.909 316.773 149.141 316.69 149.341 316.528C149.546 316.37 149.719 316.106 149.859 315.735L150.057 315.205L146.497 305.182H148.952L151.214 312.597H151.317L153.586 305.182H156.047L152.116 316.189C151.932 316.709 151.689 317.154 151.387 317.525C151.084 317.9 150.714 318.185 150.275 318.381C149.84 318.582 149.32 318.682 148.715 318.682Z" fill="white"/>
<g filter="url(#filter6_d_2013_927)">
<rect width="165" height="47" rx="23.5" transform="matrix(-1 0 0 1 569 331)" fill="#8232FF"/>
<rect x="-0.5" y="0.5" width="164" height="46" rx="23" transform="matrix(-1 0 0 1 568 331)" stroke="url(#paint27_linear_2013_927)"/>
</g>
<path d="M456.291 362V348.909H461.2C462.206 348.909 463.05 349.097 463.732 349.472C464.418 349.847 464.935 350.362 465.285 351.018C465.638 351.67 465.815 352.412 465.815 353.243C465.815 354.082 465.638 354.828 465.285 355.48C464.931 356.132 464.409 356.646 463.719 357.021C463.028 357.391 462.178 357.577 461.168 357.577H457.915V355.627H460.849C461.437 355.627 461.918 355.525 462.293 355.32C462.668 355.116 462.945 354.835 463.124 354.477C463.308 354.119 463.399 353.707 463.399 353.243C463.399 352.778 463.308 352.369 463.124 352.016C462.945 351.662 462.666 351.387 462.287 351.191C461.912 350.991 461.428 350.891 460.836 350.891H458.663V362H456.291ZM467.773 362V352.182H470.017V353.818H470.119C470.298 353.251 470.605 352.815 471.039 352.508C471.478 352.197 471.979 352.041 472.541 352.041C472.669 352.041 472.812 352.048 472.97 352.06C473.132 352.069 473.266 352.084 473.372 352.105V354.234C473.274 354.2 473.119 354.17 472.906 354.144C472.697 354.114 472.494 354.099 472.298 354.099C471.877 354.099 471.497 354.191 471.161 354.374C470.828 354.553 470.566 354.803 470.374 355.122C470.183 355.442 470.087 355.81 470.087 356.228V362H467.773ZM474.91 362V352.182H477.224V362H474.91ZM476.073 350.788C475.706 350.788 475.391 350.667 475.127 350.424C474.863 350.177 474.731 349.881 474.731 349.536C474.731 349.186 474.863 348.89 475.127 348.647C475.391 348.4 475.706 348.276 476.073 348.276C476.444 348.276 476.759 348.4 477.019 348.647C477.283 348.89 477.415 349.186 477.415 349.536C477.415 349.881 477.283 350.177 477.019 350.424C476.759 350.667 476.444 350.788 476.073 350.788ZM488.373 352.182L484.876 362H482.32L478.823 352.182H481.29L483.547 359.475H483.649L485.912 352.182H488.373ZM492.518 362.198C491.896 362.198 491.336 362.087 490.837 361.866C490.343 361.64 489.951 361.308 489.661 360.869C489.375 360.43 489.233 359.888 489.233 359.245C489.233 358.691 489.335 358.233 489.539 357.871C489.744 357.509 490.023 357.219 490.377 357.001C490.73 356.784 491.129 356.62 491.572 356.509C492.02 356.394 492.482 356.311 492.959 356.26C493.534 356.2 494.001 356.147 494.359 356.1C494.717 356.049 494.977 355.972 495.139 355.87C495.305 355.763 495.388 355.599 495.388 355.378V355.339C495.388 354.858 495.245 354.485 494.96 354.221C494.674 353.957 494.263 353.825 493.726 353.825C493.159 353.825 492.71 353.948 492.377 354.195C492.049 354.442 491.828 354.734 491.713 355.071L489.552 354.764C489.723 354.168 490.004 353.669 490.396 353.268C490.788 352.864 491.267 352.561 491.834 352.361C492.401 352.156 493.027 352.054 493.713 352.054C494.186 352.054 494.657 352.109 495.126 352.22C495.595 352.331 496.023 352.514 496.411 352.77C496.799 353.021 497.11 353.364 497.344 353.799C497.583 354.234 497.702 354.777 497.702 355.429V362H495.478V360.651H495.401C495.26 360.924 495.062 361.18 494.806 361.418C494.555 361.653 494.238 361.842 493.854 361.987C493.475 362.128 493.029 362.198 492.518 362.198ZM493.119 360.498C493.583 360.498 493.986 360.406 494.327 360.223C494.668 360.036 494.93 359.788 495.113 359.482C495.301 359.175 495.395 358.84 495.395 358.478V357.321C495.322 357.381 495.199 357.436 495.024 357.487C494.853 357.538 494.662 357.583 494.449 357.621C494.235 357.66 494.025 357.694 493.816 357.724C493.607 357.754 493.426 357.779 493.272 357.8C492.927 357.847 492.618 357.924 492.346 358.031C492.073 358.137 491.858 358.286 491.7 358.478C491.542 358.665 491.463 358.908 491.463 359.207C491.463 359.633 491.619 359.955 491.93 360.172C492.241 360.389 492.637 360.498 493.119 360.498ZM504.931 352.182V353.972H499.287V352.182H504.931ZM500.681 349.83H502.995V359.047C502.995 359.358 503.042 359.597 503.135 359.763C503.233 359.925 503.361 360.036 503.519 360.095C503.676 360.155 503.851 360.185 504.043 360.185C504.188 360.185 504.32 360.174 504.439 360.153C504.563 360.131 504.657 360.112 504.721 360.095L505.11 361.904C504.987 361.947 504.81 361.994 504.58 362.045C504.354 362.096 504.077 362.126 503.749 362.134C503.169 362.151 502.647 362.064 502.183 361.872C501.718 361.676 501.35 361.374 501.077 360.964C500.809 360.555 500.676 360.044 500.681 359.43V349.83ZM511.108 362.192C510.123 362.192 509.273 361.987 508.557 361.578C507.846 361.165 507.298 360.581 506.915 359.827C506.531 359.068 506.339 358.175 506.339 357.148C506.339 356.138 506.531 355.252 506.915 354.489C507.302 353.722 507.844 353.126 508.538 352.7C509.233 352.269 510.049 352.054 510.986 352.054C511.591 352.054 512.162 352.152 512.699 352.348C513.241 352.54 513.718 352.838 514.131 353.243C514.549 353.648 514.877 354.163 515.116 354.79C515.354 355.412 515.474 356.153 515.474 357.014V357.724H507.426V356.164H513.256C513.251 355.721 513.155 355.327 512.968 354.982C512.78 354.632 512.518 354.357 512.182 354.157C511.849 353.957 511.461 353.857 511.018 353.857C510.545 353.857 510.13 353.972 509.772 354.202C509.414 354.428 509.135 354.726 508.934 355.097C508.738 355.463 508.638 355.866 508.634 356.305V357.666C508.634 358.237 508.738 358.727 508.947 359.136C509.156 359.541 509.448 359.852 509.823 360.07C510.198 360.283 510.637 360.389 511.14 360.389C511.476 360.389 511.781 360.342 512.054 360.249C512.327 360.151 512.563 360.008 512.763 359.82C512.964 359.633 513.115 359.401 513.217 359.124L515.378 359.366C515.241 359.937 514.981 360.436 514.598 360.862C514.219 361.284 513.733 361.612 513.14 361.847C512.548 362.077 511.871 362.192 511.108 362.192Z" fill="white"/>
<g filter="url(#filter7_d_2013_927)">
<rect x="177" y="386" width="165" height="47" rx="23.5" fill="#8232FF"/>
<rect x="177.5" y="386.5" width="164" height="46" rx="23" stroke="url(#paint28_linear_2013_927)"/>
</g>
<path d="M233.291 417V403.909H238.2C239.206 403.909 240.05 404.097 240.732 404.472C241.418 404.847 241.935 405.362 242.285 406.018C242.638 406.67 242.815 407.412 242.815 408.243C242.815 409.082 242.638 409.828 242.285 410.48C241.931 411.132 241.409 411.646 240.719 412.021C240.028 412.391 239.178 412.577 238.168 412.577H234.915V410.627H237.849C238.437 410.627 238.918 410.525 239.293 410.32C239.668 410.116 239.945 409.835 240.124 409.477C240.308 409.119 240.399 408.707 240.399 408.243C240.399 407.778 240.308 407.369 240.124 407.016C239.945 406.662 239.666 406.387 239.287 406.191C238.912 405.991 238.428 405.891 237.836 405.891H235.663V417H233.291ZM251.031 412.871V407.182H253.345V417H251.101V415.255H250.999C250.777 415.805 250.413 416.254 249.906 416.604C249.403 416.953 248.783 417.128 248.046 417.128C247.402 417.128 246.833 416.985 246.339 416.7C245.849 416.41 245.465 415.99 245.188 415.44C244.911 414.886 244.773 414.217 244.773 413.433V407.182H247.087V413.075C247.087 413.697 247.257 414.192 247.598 414.558C247.939 414.925 248.387 415.108 248.941 415.108C249.281 415.108 249.612 415.025 249.931 414.859C250.251 414.692 250.513 414.445 250.718 414.117C250.926 413.785 251.031 413.369 251.031 412.871ZM255.826 417V403.909H258.14V408.805H258.236C258.355 408.567 258.524 408.313 258.741 408.045C258.958 407.772 259.252 407.54 259.623 407.348C259.994 407.152 260.467 407.054 261.042 407.054C261.801 407.054 262.485 407.248 263.094 407.636C263.708 408.019 264.194 408.588 264.551 409.342C264.914 410.092 265.095 411.013 265.095 412.104C265.095 413.182 264.918 414.098 264.564 414.852C264.211 415.607 263.729 416.182 263.12 416.578C262.51 416.974 261.82 417.173 261.049 417.173C260.486 417.173 260.02 417.079 259.649 416.891C259.278 416.704 258.98 416.478 258.754 416.214C258.532 415.945 258.36 415.692 258.236 415.453H258.102V417H255.826ZM258.096 412.091C258.096 412.726 258.185 413.282 258.364 413.759C258.547 414.237 258.809 414.609 259.15 414.878C259.495 415.142 259.913 415.274 260.403 415.274C260.914 415.274 261.343 415.138 261.688 414.865C262.033 414.588 262.293 414.211 262.468 413.734C262.647 413.252 262.736 412.705 262.736 412.091C262.736 411.482 262.649 410.94 262.474 410.467C262.299 409.994 262.039 409.624 261.694 409.355C261.349 409.087 260.919 408.952 260.403 408.952C259.909 408.952 259.489 409.082 259.144 409.342C258.799 409.602 258.537 409.967 258.358 410.435C258.183 410.904 258.096 411.456 258.096 412.091ZM269.376 403.909V417H267.062V403.909H269.376ZM271.755 417V407.182H274.069V417H271.755ZM272.919 405.788C272.552 405.788 272.237 405.667 271.973 405.424C271.708 405.177 271.576 404.881 271.576 404.536C271.576 404.186 271.708 403.89 271.973 403.647C272.237 403.4 272.552 403.276 272.919 403.276C273.289 403.276 273.605 403.4 273.865 403.647C274.129 403.89 274.261 404.186 274.261 404.536C274.261 404.881 274.129 405.177 273.865 405.424C273.605 405.667 273.289 405.788 272.919 405.788ZM280.731 417.192C279.751 417.192 278.91 416.977 278.206 416.546C277.508 416.116 276.969 415.521 276.589 414.763C276.214 414 276.027 413.122 276.027 412.129C276.027 411.132 276.219 410.252 276.602 409.489C276.986 408.722 277.527 408.126 278.226 407.7C278.929 407.269 279.76 407.054 280.719 407.054C281.515 407.054 282.221 407.201 282.834 407.495C283.452 407.785 283.944 408.196 284.311 408.729C284.677 409.257 284.886 409.875 284.937 410.582H282.726C282.636 410.109 282.423 409.715 282.086 409.4C281.754 409.08 281.309 408.92 280.751 408.92C280.278 408.92 279.862 409.048 279.504 409.304C279.146 409.555 278.867 409.918 278.667 410.391C278.471 410.864 278.373 411.43 278.373 412.091C278.373 412.76 278.471 413.335 278.667 413.817C278.863 414.294 279.138 414.663 279.491 414.923C279.849 415.178 280.269 415.306 280.751 415.306C281.091 415.306 281.396 415.242 281.665 415.114C281.937 414.982 282.165 414.793 282.349 414.545C282.532 414.298 282.657 413.998 282.726 413.644H284.937C284.882 414.339 284.677 414.955 284.324 415.491C283.97 416.024 283.488 416.442 282.879 416.744C282.27 417.043 281.554 417.192 280.731 417.192Z" fill="white"/>
</g>
<defs>
<filter id="filter0_d_2013_927" x="63" y="-14" width="225" height="107" filterUnits="userSpaceOnUse" color-interpolation-filters="sRGB">
<feFlood flood-opacity="0" result="BackgroundImageFix"/>
<feColorMatrix in="SourceAlpha" type="matrix" values="0 0 0 0 0 0 0 0 0 0 0 0 0 0 0 0 0 0 127 0" result="hardAlpha"/>
<feOffset dy="16"/>
<feGaussianBlur stdDeviation="15"/>
<feComposite in2="hardAlpha" operator="out"/>
<feColorMatrix type="matrix" values="0 0 0 0 0.087309 0 0 0 0 0.00979167 0 0 0 0 0.195833 0 0 0 1 0"/>
<feBlend mode="normal" in2="BackgroundImageFix" result="effect1_dropShadow_2013_927"/>
<feBlend mode="normal" in="SourceGraphic" in2="effect1_dropShadow_2013_927" result="shape"/>
</filter>
<filter id="filter1_d_2013_927" x="340" y="8" width="225" height="107" filterUnits="userSpaceOnUse" color-interpolation-filters="sRGB">
<feFlood flood-opacity="0" result="BackgroundImageFix"/>
<feColorMatrix in="SourceAlpha" type="matrix" values="0 0 0 0 0 0 0 0 0 0 0 0 0 0 0 0 0 0 127 0" result="hardAlpha"/>
<feOffset dy="16"/>
<feGaussianBlur stdDeviation="15"/>
<feComposite in2="hardAlpha" operator="out"/>
<feColorMatrix type="matrix" values="0 0 0 0 0.0862745 0 0 0 0 0.00784314 0 0 0 0 0.196078 0 0 0 1 0"/>
<feBlend mode="normal" in2="BackgroundImageFix" result="effect1_dropShadow_2013_927"/>
<feBlend mode="normal" in="SourceGraphic" in2="effect1_dropShadow_2013_927" result="shape"/>
</filter>
<filter id="filter2_f_2013_927" x="72" y="-46" width="474" height="474" filterUnits="userSpaceOnUse" color-interpolation-filters="sRGB">
<feFlood flood-opacity="0" result="BackgroundImageFix"/>
<feBlend mode="normal" in="SourceGraphic" in2="BackgroundImageFix" result="shape"/>
<feGaussianBlur stdDeviation="50" result="effect1_foregroundBlur_2013_927"/>
</filter>
<filter id="filter3_d_2013_927" x="-30" y="131" width="225" height="107" filterUnits="userSpaceOnUse" color-interpolation-filters="sRGB">
<feFlood flood-opacity="0" result="BackgroundImageFix"/>
<feColorMatrix in="SourceAlpha" type="matrix" values="0 0 0 0 0 0 0 0 0 0 0 0 0 0 0 0 0 0 127 0" result="hardAlpha"/>
<feOffset dy="16"/>
<feGaussianBlur stdDeviation="15"/>
<feComposite in2="hardAlpha" operator="out"/>
<feColorMatrix type="matrix" values="0 0 0 0 0.0862745 0 0 0 0 0.00784314 0 0 0 0 0.196078 0 0 0 1 0"/>
<feBlend mode="normal" in2="BackgroundImageFix" result="effect1_dropShadow_2013_927"/>
<feBlend mode="normal" in="SourceGraphic" in2="effect1_dropShadow_2013_927" result="shape"/>
</filter>
<filter id="filter4_d_2013_927" x="435" y="204" width="225" height="107" filterUnits="userSpaceOnUse" color-interpolation-filters="sRGB">
<feFlood flood-opacity="0" result="BackgroundImageFix"/>
<feColorMatrix in="SourceAlpha" type="matrix" values="0 0 0 0 0 0 0 0 0 0 0 0 0 0 0 0 0 0 127 0" result="hardAlpha"/>
<feOffset dy="16"/>
<feGaussianBlur stdDeviation="15"/>
<feComposite in2="hardAlpha" operator="out"/>
<feColorMatrix type="matrix" values="0 0 0 0 0.0862745 0 0 0 0 0.00784314 0 0 0 0 0.196078 0 0 0 1 0"/>
<feBlend mode="normal" in2="BackgroundImageFix" result="effect1_dropShadow_2013_927"/>
<feBlend mode="normal" in="SourceGraphic" in2="effect1_dropShadow_2013_927" result="shape"/>
</filter>
<filter id="filter5_d_2013_927" x="-5" y="270" width="225" height="107" filterUnits="userSpaceOnUse" color-interpolation-filters="sRGB">
<feFlood flood-opacity="0" result="BackgroundImageFix"/>
<feColorMatrix in="SourceAlpha" type="matrix" values="0 0 0 0 0 0 0 0 0 0 0 0 0 0 0 0 0 0 127 0" result="hardAlpha"/>
<feOffset dy="16"/>
<feGaussianBlur stdDeviation="15"/>
<feComposite in2="hardAlpha" operator="out"/>
<feColorMatrix type="matrix" values="0 0 0 0 0.0862745 0 0 0 0 0.00784314 0 0 0 0 0.196078 0 0 0 1 0"/>
<feBlend mode="normal" in2="BackgroundImageFix" result="effect1_dropShadow_2013_927"/>
<feBlend mode="normal" in="SourceGraphic" in2="effect1_dropShadow_2013_927" result="shape"/>
</filter>
<filter id="filter6_d_2013_927" x="374" y="317" width="225" height="107" filterUnits="userSpaceOnUse" color-interpolation-filters="sRGB">
<feFlood flood-opacity="0" result="BackgroundImageFix"/>
<feColorMatrix in="SourceAlpha" type="matrix" values="0 0 0 0 0 0 0 0 0 0 0 0 0 0 0 0 0 0 127 0" result="hardAlpha"/>
<feOffset dy="16"/>
<feGaussianBlur stdDeviation="15"/>
<feComposite in2="hardAlpha" operator="out"/>
<feColorMatrix type="matrix" values="0 0 0 0 0.0862745 0 0 0 0 0.00784314 0 0 0 0 0.196078 0 0 0 1 0"/>
<feBlend mode="normal" in2="BackgroundImageFix" result="effect1_dropShadow_2013_927"/>
<feBlend mode="normal" in="SourceGraphic" in2="effect1_dropShadow_2013_927" result="shape"/>
</filter>
<filter id="filter7_d_2013_927" x="147" y="372" width="225" height="107" filterUnits="userSpaceOnUse" color-interpolation-filters="sRGB">
<feFlood flood-opacity="0" result="BackgroundImageFix"/>
<feColorMatrix in="SourceAlpha" type="matrix" values="0 0 0 0 0 0 0 0 0 0 0 0 0 0 0 0 0 0 127 0" result="hardAlpha"/>
<feOffset dy="16"/>
<feGaussianBlur stdDeviation="15"/>
<feComposite in2="hardAlpha" operator="out"/>
<feColorMatrix type="matrix" values="0 0 0 0 0.0862745 0 0 0 0 0.00784314 0 0 0 0 0.196078 0 0 0 1 0"/>
<feBlend mode="normal" in2="BackgroundImageFix" result="effect1_dropShadow_2013_927"/>
<feBlend mode="normal" in="SourceGraphic" in2="effect1_dropShadow_2013_927" result="shape"/>
</filter>
<linearGradient id="paint0_linear_2013_927" x1="156.18" y1="-86.5488" x2="179.343" y2="46.3301" gradientUnits="userSpaceOnUse">
<stop offset="0.580613" stop-color="#C296FF"/>
<stop offset="1" stop-color="#5C33BC" stop-opacity="0.35"/>
</linearGradient>
<linearGradient id="paint1_linear_2013_927" x1="63.1804" y1="-86.5488" x2="86.3431" y2="46.3301" gradientUnits="userSpaceOnUse">
<stop offset="0.580613" stop-color="#C296FF"/>
<stop offset="1" stop-color="#5C33BC" stop-opacity="0.35"/>
</linearGradient>
<linearGradient id="paint2_linear_2013_927" x1="212.825" y1="16.9928" x2="245.696" y2="124.506" gradientUnits="userSpaceOnUse">
<stop offset="0.303689" stop-color="#35A5D5"/>
<stop offset="0.89827" stop-color="white"/>
</linearGradient>
<radialGradient id="paint3_radial_2013_927" cx="0" cy="0" r="1" gradientUnits="userSpaceOnUse" gradientTransform="translate(500 328) rotate(-149.036) scale(195.337 674.114)">
<stop offset="0.120359" stop-color="#030006"/>
<stop offset="0.715435" stop-color="#3A006D" stop-opacity="0.38"/>
<stop offset="0.903765" stop-color="#9F5DFD" stop-opacity="0.46"/>
</radialGradient>
<linearGradient id="paint4_linear_2013_927" x1="203.906" y1="-22.5281" x2="373.714" y2="6.31955" gradientUnits="userSpaceOnUse">
<stop stop-color="#9901FE"/>
<stop offset="1" stop-color="#7B01FD"/>
</linearGradient>
<linearGradient id="paint5_linear_2013_927" x1="439.081" y1="38.9928" x2="406.209" y2="146.506" gradientUnits="userSpaceOnUse">
<stop offset="0.303689" stop-color="#35A5D5"/>
<stop offset="0.89827" stop-color="white"/>
</linearGradient>
<linearGradient id="paint6_linear_2013_927" x1="237" y1="289.5" x2="333.177" y2="289.383" gradientUnits="userSpaceOnUse">
<stop offset="0.411628" stop-color="#1E92FF"/>
<stop offset="1" stop-color="#3FACFE"/>
</linearGradient>
<linearGradient id="paint7_linear_2013_927" x1="233.5" y1="434" x2="397.141" y2="391.713" gradientUnits="userSpaceOnUse">
<stop offset="0.314129" stop-color="#066CCF"/>
<stop offset="1" stop-color="#0080FF"/>
</linearGradient>
<linearGradient id="paint8_linear_2013_927" x1="226.5" y1="506" x2="626.479" y2="415.693" gradientUnits="userSpaceOnUse">
<stop offset="0.0401675" stop-color="#8801FE"/>
<stop offset="0.650747" stop-color="#A05CE9"/>
</linearGradient>
<linearGradient id="paint9_linear_2013_927" x1="578" y1="514" x2="674.033" y2="289.164" gradientUnits="userSpaceOnUse">
<stop offset="0.314129" stop-color="#005A9B"/>
<stop offset="1" stop-color="#0166FE"/>
</linearGradient>
<linearGradient id="paint10_linear_2013_927" x1="578" y1="514" x2="674.033" y2="289.164" gradientUnits="userSpaceOnUse">
<stop offset="0.630306" stop-color="#005A9B"/>
<stop offset="1" stop-color="#0166FE"/>
</linearGradient>
<linearGradient id="paint11_linear_2013_927" x1="226.5" y1="506" x2="626.479" y2="415.693" gradientUnits="userSpaceOnUse">
<stop offset="0.0401675" stop-color="#8801FE"/>
<stop offset="0.650747" stop-color="#A05CE9"/>
</linearGradient>
<linearGradient id="paint12_linear_2013_927" x1="364.936" y1="133.051" x2="236.566" y2="93.8679" gradientUnits="userSpaceOnUse">
<stop stop-color="white"/>
<stop offset="0.803412" stop-color="white"/>
</linearGradient>
<linearGradient id="paint13_linear_2013_927" x1="286.969" y1="155.051" x2="415.34" y2="115.868" gradientUnits="userSpaceOnUse">
<stop stop-color="white"/>
<stop offset="0.803412" stop-color="white"/>
</linearGradient>
<linearGradient id="paint14_linear_2013_927" x1="63.1804" y1="58.4512" x2="86.3431" y2="191.33" gradientUnits="userSpaceOnUse">
<stop offset="0.580613" stop-color="#C296FF"/>
<stop offset="1" stop-color="#5C33BC" stop-opacity="0.35"/>
</linearGradient>
<linearGradient id="paint15_linear_2013_927" x1="316.936" y1="193.051" x2="188.566" y2="153.868" gradientUnits="userSpaceOnUse">
<stop stop-color="white"/>
<stop offset="0.803412" stop-color="white"/>
</linearGradient>
<linearGradient id="paint16_linear_2013_927" x1="164.825" y1="76.9929" x2="187.759" y2="176.166" gradientUnits="userSpaceOnUse">
<stop offset="0.303689" stop-color="white"/>
<stop offset="0.89827" stop-color="white"/>
</linearGradient>
<linearGradient id="paint17_linear_2013_927" x1="63.1804" y1="-86.5488" x2="86.3431" y2="46.3301" gradientUnits="userSpaceOnUse">
<stop offset="0.580613" stop-color="#C296FF"/>
<stop offset="1" stop-color="#5C33BC" stop-opacity="0.35"/>
</linearGradient>
<linearGradient id="paint18_linear_2013_927" x1="292.969" y1="266.051" x2="421.34" y2="226.868" gradientUnits="userSpaceOnUse">
<stop stop-color="white"/>
<stop offset="0.803412" stop-color="white"/>
</linearGradient>
<linearGradient id="paint19_linear_2013_927" x1="152.975" y1="322.808" x2="207.21" y2="236.669" gradientUnits="userSpaceOnUse">
<stop offset="0.303689" stop-color="white"/>
<stop offset="0.89827" stop-color="white"/>
</linearGradient>
<linearGradient id="paint20_linear_2013_927" x1="334.783" y1="261.578" x2="200.665" y2="256.425" gradientUnits="userSpaceOnUse">
<stop stop-color="white"/>
<stop offset="0.803412" stop-color="white"/>
</linearGradient>
<linearGradient id="paint21_linear_2013_927" x1="445.081" y1="149.993" x2="422.147" y2="249.166" gradientUnits="userSpaceOnUse">
<stop offset="0.303689" stop-color="white"/>
<stop offset="0.89827" stop-color="white"/>
</linearGradient>
<linearGradient id="paint22_linear_2013_927" x1="255.969" y1="253.461" x2="384.34" y2="292.644" gradientUnits="userSpaceOnUse">
<stop stop-color="white"/>
<stop offset="0.803412" stop-color="white"/>
</linearGradient>
<linearGradient id="paint23_linear_2013_927" x1="423.98" y1="361.037" x2="384.452" y2="267.235" gradientUnits="userSpaceOnUse">
<stop offset="0.303689" stop-color="white"/>
<stop offset="0.89827" stop-color="white"/>
</linearGradient>
<linearGradient id="paint24_linear_2013_927" x1="400.155" y1="268.461" x2="271.785" y2="307.644" gradientUnits="userSpaceOnUse">
<stop stop-color="white"/>
<stop offset="0.803412" stop-color="white"/>
</linearGradient>
<linearGradient id="paint25_linear_2013_927" x1="88.1804" y1="197.451" x2="111.343" y2="330.33" gradientUnits="userSpaceOnUse">
<stop offset="0.580613" stop-color="#C296FF"/>
<stop offset="1" stop-color="#5C33BC" stop-opacity="0.35"/>
</linearGradient>
<linearGradient id="paint26_linear_2013_927" x1="278.636" y1="433.661" x2="266.325" y2="332.618" gradientUnits="userSpaceOnUse">
<stop offset="0.303689" stop-color="white"/>
<stop offset="0.89827" stop-color="white"/>
</linearGradient>
<linearGradient id="paint27_linear_2013_927" x1="63.1804" y1="-86.5488" x2="86.3431" y2="46.3301" gradientUnits="userSpaceOnUse">
<stop offset="0.580613" stop-color="#C296FF"/>
<stop offset="1" stop-color="#5C33BC" stop-opacity="0.35"/>
</linearGradient>
<linearGradient id="paint28_linear_2013_927" x1="240.18" y1="299.451" x2="263.343" y2="432.33" gradientUnits="userSpaceOnUse">
<stop offset="0.580613" stop-color="#C296FF"/>
<stop offset="1" stop-color="#5C33BC" stop-opacity="0.35"/>
</linearGradient>
<clipPath id="clip0_2013_927">
<rect width="630" height="433" fill="white"/>
</clipPath>
</defs>
</svg>
